<svg xmlns="http://www.w3.org/2000/svg" viewBox="0 0 800 450" width="100%" height="100%">
  <defs>
    <linearGradient id="bg42" x1="0%" y1="0%" x2="100%" y2="100%">
      <stop offset="0%" stop-color="#090e14"/>
      <stop offset="100%" stop-color="#111822"/>
    </linearGradient>
  </defs>
  <rect width="800" height="450" rx="12" fill="url(#bg42)" stroke="#27273a" stroke-width="1.5"/>
  <rect width="800" height="42" rx="12" fill="#121422"/>
  <rect y="30" width="800" height="12" fill="#121422"/>
  <line x1="0" y1="42" x2="800" y2="42" stroke="#27273a" stroke-width="1"/>
  <circle cx="24" cy="21" r="6" fill="#ef4444" opacity="0.8"/>
  <circle cx="44" cy="21" r="6" fill="#f59e0b" opacity="0.8"/>
  <circle cx="64" cy="21" r="6" fill="#10b981" opacity="0.8"/>
  <text x="400" y="26" fill="#94a3b8" font-family="'JetBrains Mono', monospace" font-size="12" text-anchor="middle">docker-daemon // Containers &amp; Micro-Pod Resources</text>

  <!-- 4 Pod Cards -->
  <g transform="translate(30, 65)">
    <rect width="355" height="155" rx="8" fill="#121a22" stroke="#1f2c38"/>
    <text x="20" y="32" fill="#f1f5f9" font-family="monospace" font-size="12" font-weight="bold">nginx-ingress-controller</text>
    <text x="20" y="55" fill="#10b981" font-family="monospace" font-size="11">● Running (Uptime: 48d)</text>
    <text x="20" y="85" fill="#94a3b8" font-family="monospace" font-size="11">CPU: 4% | RAM: 142MB / 512MB</text>
    <!-- mini bar -->
    <rect x="20" y="105" width="315" height="8" rx="4" fill="#090d12"/>
    <rect x="20" y="105" width="88" height="8" rx="4" fill="#10b981"/>

    <rect x="385" width="355" height="155" rx="8" fill="#121a22" stroke="#1f2c38"/>
    <text x="405" y="32" fill="#f1f5f9" font-family="monospace" font-size="12" font-weight="bold">backend-api-pod-1</text>
    <text x="405" y="55" fill="#10b981" font-family="monospace" font-size="11">● Running (Uptime: 14d)</text>
    <text x="405" y="85" fill="#94a3b8" font-family="monospace" font-size="11">CPU: 18% | RAM: 680MB / 2048MB</text>
    <rect x="405" y="105" width="315" height="8" rx="4" fill="#090d12"/>
    <rect x="405" y="105" width="104" height="8" rx="4" fill="#06b6d4"/>

    <rect y="175" width="355" height="155" rx="8" fill="#121a22" stroke="#1f2c38"/>
    <text x="20" y="207" fill="#f1f5f9" font-family="monospace" font-size="12" font-weight="bold">redis-cluster-node-master</text>
    <text x="20" y="230" fill="#10b981" font-family="monospace" font-size="11">● Healthy (Persistence: AOF)</text>
    <text x="20" y="260" fill="#94a3b8" font-family="monospace" font-size="11">Keys: 42,190 | Hit Ratio: 99.4%</text>
    <rect x="20" y="280" width="315" height="8" rx="4" fill="#090d12"/>
    <rect x="20" y="280" width="260" height="8" rx="4" fill="#a78bfa"/>

    <rect x="385" y="175" width="355" height="155" rx="8" fill="#121a22" stroke="#1f2c38"/>
    <text x="405" y="207" fill="#f1f5f9" font-family="monospace" font-size="12" font-weight="bold">rabbitmq-broker-node-0</text>
    <text x="405" y="230" fill="#10b981" font-family="monospace" font-size="11">● Queues: 18 (0 dead-letter)</text>
    <text x="405" y="260" fill="#94a3b8" font-family="monospace" font-size="11">Disk Free: 82GB | Erlang VM: OK</text>
    <rect x="405" y="280" width="315" height="8" rx="4" fill="#090d12"/>
    <rect x="405" y="280" width="150" height="8" rx="4" fill="#f59e0b"/>
  </g>
</svg>
